<svg width="595" height="79" xmlns="http://www.w3.org/2000/svg" xmlns:xlink="http://www.w3.org/1999/xlink" xml:space="preserve" overflow="hidden"><g transform="translate(-30 -249)"><g><g><g><g><path d="M0 0 111.05 0 111.05 76.3682 3.44759e-06 76.3682Z" fill="#FFFFFF" fill-rule="evenodd" fill-opacity="1" transform="matrix(1 0 0 1.00272 31 250.212)"/><path d="M147.088 31.0669 147.088 21.4644 137.033 21.4644 137.033 31.0669 133.531 31.0669 133.531 9.71548 137.033 9.71548 137.033 18.5272 147.088 18.5272 147.088 9.71548 150.477 9.71548 150.477 31.0669 147.088 31.0669Z" fill="#373433" fill-rule="nonzero" fill-opacity="1" transform="matrix(1 0 0 1.00272 31 250.212)"/><path d="M165.841 31.0669 164.711 27.9038 157.82 27.9038 156.577 31.0669 153.188 31.0669 159.402 14.5732 163.469 14.5732 169.682 31.0669 165.841 31.0669ZM162.113 20.7866C161.774 19.8828 161.435 18.9791 161.209 18.1883 160.983 18.9791 160.757 19.8828 160.418 20.7866L158.611 25.4184 163.808 25.4184 162.113 20.7866Z" fill="#373433" fill-rule="nonzero" fill-opacity="1" transform="matrix(1 0 0 1.00272 31 250.212)"/><path d="M180.753 31.0669 176.008 24.2887 175.895 24.2887 175.895 31.0669 172.506 31.0669 172.506 14.6862C173.749 14.5732 175.895 14.5732 177.929 14.5732 181.883 14.5732 184.142 16.0418 184.142 19.092 184.142 21.8033 182.222 23.3849 179.623 23.8368 179.962 24.2887 180.414 24.9665 180.979 25.6444L185.046 31.1799 180.753 31.1799ZM177.364 17.1715C176.799 17.1715 176.347 17.1715 175.895 17.2845L175.895 22.0293C176.347 22.0293 176.912 22.1423 177.477 22.1423 179.285 22.1423 180.414 21.1255 180.414 19.5439 180.414 17.9623 179.285 17.1715 177.364 17.1715Z" fill="#373433" fill-rule="nonzero" fill-opacity="1" transform="matrix(1 0 0 1.00272 31 250.212)"/><path d="M196.004 31.0669 192.05 31.0669 185.724 14.6862 189.452 14.6862 192.615 23.159C193.067 24.5146 193.519 25.9833 193.971 27.4519 194.423 25.9833 194.874 24.5146 195.326 23.159L198.603 14.5732 202.105 14.5732 196.004 31.0669Z" fill="#373433" fill-rule="nonzero" fill-opacity="1" transform="matrix(1 0 0 1.00272 31 250.212)"/><path d="M214.192 31.0669 213.063 27.9038 206.172 27.9038 204.929 31.0669 201.54 31.0669 207.753 14.5732 211.82 14.5732 218.033 31.0669 214.192 31.0669ZM210.464 20.7866C210.126 19.8828 209.787 18.9791 209.561 18.1883 209.335 18.9791 209.109 19.8828 208.77 20.7866L206.962 25.4184 212.159 25.4184 210.464 20.7866Z" fill="#373433" fill-rule="nonzero" fill-opacity="1" transform="matrix(1 0 0 1.00272 31 250.212)"/><path d="M229.105 31.0669 224.36 24.2887 224.247 24.2887 224.247 31.0669 220.858 31.0669 220.858 14.6862C222.1 14.5732 224.247 14.5732 226.28 14.5732 230.234 14.5732 232.494 16.0418 232.494 19.092 232.494 21.8033 230.573 23.3849 227.975 23.8368 228.314 24.2887 228.766 24.9665 229.331 25.6444L233.397 31.1799 229.105 31.1799ZM225.603 17.1715C225.038 17.1715 224.586 17.1715 224.134 17.2845L224.134 22.0293C224.586 22.0293 225.151 22.1423 225.715 22.1423 227.523 22.1423 228.653 21.1255 228.653 19.5439 228.766 17.9623 227.523 17.1715 225.603 17.1715Z" fill="#373433" fill-rule="nonzero" fill-opacity="1" transform="matrix(1 0 0 1.00272 31 250.212)"/><path d="M241.418 31.1799C239.385 31.1799 237.69 31.0669 236.335 31.0669L236.335 14.6862C237.803 14.6862 240.402 14.5732 242.322 14.5732 247.745 14.5732 251.247 16.8326 251.247 22.5941 251.134 28.4686 246.954 31.1799 241.418 31.1799ZM241.87 17.2845C241.192 17.2845 240.402 17.2845 239.724 17.3975L239.724 28.2427C240.176 28.2427 241.079 28.3556 241.757 28.3556 245.146 28.3556 247.519 26.5481 247.519 22.8201 247.519 19.205 245.598 17.2845 241.87 17.2845Z" fill="#373433" fill-rule="nonzero" fill-opacity="1" transform="matrix(1 0 0 1.00272 31 250.212)"/><path d="M254.749 23.3849 254.749 20.4477 270.565 20.4477 270.565 23.3849 254.749 23.3849Z" fill="#373433" fill-rule="nonzero" fill-opacity="1" transform="matrix(1 0 0 1.00272 31 250.212)"/><path d="M294.741 31.0669 293.046 19.6569C292.707 17.3975 292.594 15.8159 292.368 14.4603L292.255 14.4603C292.029 15.7029 291.69 17.0586 291.126 18.6402L287.059 31.0669 283.444 31.0669 279.603 19.5439C279.038 17.8494 278.473 16.0418 278.247 14.4603L278.134 14.4603C278.021 16.2678 277.795 17.9623 277.569 19.9958L276.213 31.0669 272.711 31.0669 275.874 9.71548 279.941 9.71548 284.008 22.0293C284.46 23.6109 284.912 24.9665 285.138 26.4351L285.251 26.4351C285.59 24.8536 285.929 23.7238 286.381 22.1423L290.561 9.71548 294.741 9.71548 298.017 31.0669 294.741 31.0669Z" fill="#373433" fill-rule="nonzero" fill-opacity="1" transform="matrix(1 0 0 1.00272 31 250.212)"/><path d="M302.423 31.0669 302.423 9.71548 305.925 9.71548 305.925 31.0669 302.423 31.0669Z" fill="#373433" fill-rule="nonzero" fill-opacity="1" transform="matrix(1 0 0 1.00272 31 250.212)"/><path d="M317.674 12.6527 317.674 31.0669 314.172 31.0669 314.172 12.6527 308.41 12.6527 308.41 9.71548 323.548 9.71548 323.548 12.6527 317.674 12.6527Z" fill="#373433" fill-rule="nonzero" fill-opacity="1" transform="matrix(1 0 0 1.00272 31 250.212)"/><path d="M147.088 64.9582 147.088 55.3556 137.033 55.3556 137.033 64.9582 133.531 64.9582 133.531 43.6067 137.033 43.6067 137.033 52.4184 147.088 52.4184 147.088 43.6067 150.477 43.6067 150.477 64.9582 147.088 64.9582Z" fill="#373433" fill-rule="nonzero" fill-opacity="1" transform="matrix(1 0 0 1.00272 31 250.212)"/><path d="M155.222 64.9582 155.222 48.5774 164.937 48.5774 164.937 51.2887 158.724 51.2887 158.724 55.3556 164.711 55.3556 164.711 57.954 158.724 57.954 158.724 62.3598 164.937 62.3598 164.937 65.0711 155.222 65.0711Z" fill="#373433" fill-rule="nonzero" fill-opacity="1" transform="matrix(1 0 0 1.00272 31 250.212)"/><path d="M179.962 64.9582 178.833 61.795 171.941 61.795 170.699 64.9582 167.31 64.9582 173.523 48.4644 177.59 48.4644 183.803 64.9582 179.962 64.9582ZM176.234 54.6778C175.895 53.7741 175.556 52.8703 175.331 52.0795 175.105 52.8703 174.879 53.7741 174.54 54.6778L172.732 59.3096 177.929 59.3096 176.234 54.6778Z" fill="#373433" fill-rule="nonzero" fill-opacity="1" transform="matrix(1 0 0 1.00272 31 250.212)"/><path d="M186.515 64.9582 186.515 48.5774 189.904 48.5774 189.904 62.0209 195.552 62.0209 195.552 64.9582 186.515 64.9582Z" fill="#373433" fill-rule="nonzero" fill-opacity="1" transform="matrix(1 0 0 1.00272 31 250.212)"/><path d="M203.008 51.4017 203.008 64.9582 199.619 64.9582 199.619 51.4017 195.1 51.4017 195.1 48.5774 207.64 48.5774 207.64 51.5146 203.008 51.5146Z" fill="#373433" fill-rule="nonzero" fill-opacity="1" transform="matrix(1 0 0 1.00272 31 250.212)"/><path d="M221.536 64.9582 221.536 57.954 213.741 57.954 213.741 64.9582 210.351 64.9582 210.351 48.5774 213.741 48.5774 213.741 55.1297 221.536 55.1297 221.536 48.5774 224.925 48.5774 224.925 65.0711 221.536 65.0711Z" fill="#373433" fill-rule="nonzero" fill-opacity="1" transform="matrix(1 0 0 1.00272 31 250.212)"/><path d="M240.854 65.2971C239.272 65.2971 237.803 65.0711 236.561 64.8452L236.787 61.569C238.029 62.0209 239.611 62.3598 241.192 62.3598 243.565 62.3598 245.485 61.3431 245.485 59.0837 245.485 54.5649 236.109 56.4854 236.109 49.5941 236.109 45.9791 238.933 43.3808 243.904 43.3808 245.146 43.3808 246.502 43.4937 247.745 43.7197L247.519 46.7699C246.276 46.431 244.921 46.205 243.678 46.205 240.967 46.205 239.611 47.4477 239.611 49.2552 239.611 53.5481 248.987 51.9665 248.987 58.6318 249.1 62.4728 245.937 65.2971 240.854 65.2971Z" fill="#373433" fill-rule="nonzero" fill-opacity="1" transform="matrix(1 0 0 1.00272 31 250.212)"/><path d="M259.607 65.1841C254.184 65.1841 251.473 62.1339 251.473 57.0502 251.473 52.4184 254.184 48.2385 260.285 48.2385 261.414 48.2385 262.77 48.3515 263.787 48.6904L263.448 51.7406C262.318 51.4017 261.075 51.1757 259.946 51.1757 256.669 51.1757 254.975 53.5481 254.975 56.8243 254.975 60.3264 256.895 62.2469 260.172 62.2469 261.414 62.2469 262.657 61.9079 263.674 61.4561L264.013 64.5063C262.77 64.9582 261.301 65.1841 259.607 65.1841Z" fill="#373433" fill-rule="nonzero" fill-opacity="1" transform="matrix(1 0 0 1.00272 31 250.212)"/><path d="M268.079 64.9582 268.079 48.5774 271.469 48.5774 271.469 65.0711 268.079 65.0711Z" fill="#373433" fill-rule="nonzero" fill-opacity="1" transform="matrix(1 0 0 1.00272 31 250.212)"/><path d="M276.778 64.9582 276.778 48.5774 286.494 48.5774 286.494 51.2887 280.167 51.2887 280.167 55.3556 286.155 55.3556 286.155 57.954 280.167 57.954 280.167 62.3598 286.381 62.3598 286.381 65.0711 276.778 65.0711Z" fill="#373433" fill-rule="nonzero" fill-opacity="1" transform="matrix(1 0 0 1.00272 31 250.212)"/><path d="M301.858 64.9582 296.209 56.0335C295.531 55.0167 294.967 53.887 294.515 52.8703 294.628 53.7741 294.628 54.7908 294.628 56.3724L294.628 64.9582 291.351 64.9582 291.351 48.5774 295.87 48.5774 301.406 57.3891C302.084 58.4059 302.649 59.4226 303.213 60.6653 303.1 59.6485 303.1 58.0669 303.1 55.9205L303.1 48.6904 306.377 48.6904 306.377 65.1841 301.858 65.1841Z" fill="#373433" fill-rule="nonzero" fill-opacity="1" transform="matrix(1 0 0 1.00272 31 250.212)"/><path d="M318.126 65.1841C312.703 65.1841 309.992 62.1339 309.992 57.0502 309.992 52.4184 312.703 48.2385 318.803 48.2385 319.933 48.2385 321.289 48.3515 322.305 48.6904L321.967 51.7406C320.837 51.4017 319.594 51.1757 318.464 51.1757 315.188 51.1757 313.494 53.5481 313.494 56.8243 313.494 60.3264 315.414 62.2469 318.69 62.2469 319.933 62.2469 321.176 61.9079 322.192 61.4561L322.531 64.5063C321.176 64.9582 319.707 65.1841 318.126 65.1841Z" fill="#373433" fill-rule="nonzero" fill-opacity="1" transform="matrix(1 0 0 1.00272 31 250.212)"/><path d="M326.485 64.9582 326.485 48.5774 336.201 48.5774 336.201 51.2887 329.874 51.2887 329.874 55.3556 335.862 55.3556 335.862 57.954 329.874 57.954 329.874 62.3598 336.088 62.3598 336.088 65.0711 326.485 65.0711Z" fill="#373433" fill-rule="nonzero" fill-opacity="1" transform="matrix(1 0 0 1.00272 31 250.212)"/><path d="M342.866 65.2971C341.736 65.2971 340.381 65.0711 339.477 64.8452L339.59 61.795C340.494 62.1339 341.849 62.4728 343.205 62.4728 344.787 62.4728 346.255 61.795 346.255 60.2134 346.255 57.2761 339.025 58.8577 339.025 53.4351 339.025 50.3849 341.397 48.2385 345.803 48.2385 346.707 48.2385 348.063 48.3515 348.967 48.5774L348.854 51.5146C347.95 51.1757 346.707 51.0628 345.69 51.0628 343.657 51.0628 342.64 51.8536 342.64 53.0962 342.64 55.9205 349.983 54.6778 349.983 59.8745 349.983 63.1506 347.046 65.2971 342.866 65.2971Z" fill="#373433" fill-rule="nonzero" fill-opacity="1" transform="matrix(1 0 0 1.00272 31 250.212)"/><path d="M371.787 64.9582 370.657 61.795 363.766 61.795 362.523 64.9582 359.134 64.9582 365.347 48.4644 369.414 48.4644 375.628 64.9582 371.787 64.9582ZM368.059 54.6778C367.72 53.7741 367.381 52.8703 367.155 52.0795 366.929 52.8703 366.703 53.7741 366.364 54.6778L364.556 59.3096 369.753 59.3096 368.059 54.6778Z" fill="#373433" fill-rule="nonzero" fill-opacity="1" transform="matrix(1 0 0 1.00272 31 250.212)"/><path d="M388.958 64.9582 383.31 56.0335C382.632 55.0167 382.067 53.887 381.615 52.8703 381.728 53.7741 381.728 54.7908 381.728 56.3724L381.728 64.9582 378.452 64.9582 378.452 48.5774 382.971 48.5774 388.506 57.3891C389.184 58.4059 389.749 59.4226 390.314 60.6653 390.201 59.6485 390.201 58.0669 390.201 55.9205L390.201 48.6904 393.477 48.6904 393.477 65.1841 388.958 65.1841Z" fill="#373433" fill-rule="nonzero" fill-opacity="1" transform="matrix(1 0 0 1.00272 31 250.212)"/><path d="M403.418 65.0711C401.385 65.0711 399.69 64.9582 398.335 64.9582L398.335 48.5774C399.803 48.5774 402.402 48.4644 404.322 48.4644 409.745 48.4644 413.247 50.7239 413.247 56.4854 413.134 62.3598 408.954 65.0711 403.418 65.0711ZM403.87 51.1757C403.192 51.1757 402.402 51.1757 401.724 51.2887L401.724 62.1339C402.176 62.1339 403.079 62.2469 403.757 62.2469 407.146 62.2469 409.519 60.4393 409.519 56.7113 409.519 53.0962 407.598 51.1757 403.87 51.1757Z" fill="#373433" fill-rule="nonzero" fill-opacity="1" transform="matrix(1 0 0 1.00272 31 250.212)"/><path d="M431.096 46.5439 431.096 64.9582 427.594 64.9582 427.594 46.5439 421.72 46.5439 421.72 43.6067 436.858 43.6067 436.858 46.5439 431.096 46.5439Z" fill="#373433" fill-rule="nonzero" fill-opacity="1" transform="matrix(1 0 0 1.00272 31 250.212)"/><path d="M438.326 64.9582 438.326 48.5774 448.042 48.5774 448.042 51.2887 441.715 51.2887 441.715 55.3556 447.703 55.3556 447.703 57.954 441.715 57.954 441.715 62.3598 447.929 62.3598 447.929 65.0711 438.326 65.0711Z" fill="#373433" fill-rule="nonzero" fill-opacity="1" transform="matrix(1 0 0 1.00272 31 250.212)"/><path d="M459.565 65.1841C454.142 65.1841 451.431 62.1339 451.431 57.0502 451.431 52.4184 454.142 48.2385 460.243 48.2385 461.372 48.2385 462.728 48.3515 463.745 48.6904L463.406 51.7406C462.276 51.4017 461.033 51.1757 459.904 51.1757 456.628 51.1757 454.933 53.5481 454.933 56.8243 454.933 60.3264 456.854 62.2469 460.13 62.2469 461.372 62.2469 462.615 61.9079 463.632 61.4561L463.971 64.5063C462.615 64.9582 461.146 65.1841 459.565 65.1841Z" fill="#373433" fill-rule="nonzero" fill-opacity="1" transform="matrix(1 0 0 1.00272 31 250.212)"/><path d="M479.109 64.9582 479.109 57.954 471.314 57.954 471.314 64.9582 467.925 64.9582 467.925 48.5774 471.314 48.5774 471.314 55.1297 479.109 55.1297 479.109 48.5774 482.498 48.5774 482.498 65.0711 479.109 65.0711Z" fill="#373433" fill-rule="nonzero" fill-opacity="1" transform="matrix(1 0 0 1.00272 31 250.212)"/><path d="M497.749 64.9582 492.1 56.0335C491.423 55.0167 490.858 53.887 490.406 52.8703 490.519 53.7741 490.519 54.7908 490.519 56.3724L490.519 64.9582 487.243 64.9582 487.243 48.5774 491.761 48.5774 497.297 57.3891C497.975 58.4059 498.54 59.4226 499.105 60.6653 498.992 59.6485 498.992 58.0669 498.992 55.9205L498.992 48.6904 502.268 48.6904 502.268 65.1841 497.749 65.1841Z" fill="#373433" fill-rule="nonzero" fill-opacity="1" transform="matrix(1 0 0 1.00272 31 250.212)"/><path d="M513.904 65.2971C508.594 65.2971 505.883 61.9079 505.883 56.9372 505.883 51.5146 509.837 48.2385 514.469 48.2385 519.213 48.2385 522.603 51.0628 522.603 56.5983 522.603 62.0209 518.649 65.2971 513.904 65.2971ZM514.243 51.1757C511.757 51.1757 509.611 53.0962 509.611 56.5983 509.611 59.7615 510.966 62.2469 514.13 62.2469 516.728 62.2469 518.874 60.4393 518.874 56.8243 518.874 53.2092 517.067 51.1757 514.243 51.1757Z" fill="#373433" fill-rule="nonzero" fill-opacity="1" transform="matrix(1 0 0 1.00272 31 250.212)"/><path d="M526.105 64.9582 526.105 48.5774 529.494 48.5774 529.494 62.0209 535.142 62.0209 535.142 64.9582 526.105 64.9582Z" fill="#373433" fill-rule="nonzero" fill-opacity="1" transform="matrix(1 0 0 1.00272 31 250.212)"/><path d="M544.745 65.2971C539.435 65.2971 536.724 61.9079 536.724 56.9372 536.724 51.5146 540.678 48.2385 545.31 48.2385 550.054 48.2385 553.443 51.0628 553.443 56.5983 553.443 62.0209 549.49 65.2971 544.745 65.2971ZM545.084 51.1757C542.598 51.1757 540.452 53.0962 540.452 56.5983 540.452 59.7615 541.808 62.2469 544.971 62.2469 547.569 62.2469 549.715 60.4393 549.715 56.8243 549.715 53.2092 547.908 51.1757 545.084 51.1757Z" fill="#373433" fill-rule="nonzero" fill-opacity="1" transform="matrix(1 0 0 1.00272 31 250.212)"/><path d="M564.289 65.1841C559.318 65.1841 555.816 62.3598 555.816 57.0502 555.816 52.0795 559.205 48.2385 564.967 48.2385 566.661 48.2385 568.469 48.4644 570.163 49.0293L569.598 51.9665C568.13 51.4017 566.661 51.0628 565.08 51.0628 562.029 51.0628 559.544 52.9833 559.544 56.7113 559.544 60.2134 561.69 62.1339 564.741 62.1339 565.644 62.1339 566.435 62.0209 567.113 61.795L567.113 56.2594 570.502 56.2594 570.502 64.0544C568.582 64.8452 566.548 65.1841 564.289 65.1841Z" fill="#373433" fill-rule="nonzero" fill-opacity="1" transform="matrix(1 0 0 1.00272 31 250.212)"/><path d="M581.912 59.4226 581.912 64.9582 578.523 64.9582 578.523 59.5356 572.761 48.5774 576.49 48.5774 578.975 53.3222C579.427 54.2259 579.879 55.2427 580.331 56.3724 580.782 55.2427 581.347 54.113 581.799 53.2092L584.172 48.6904 587.674 48.6904 581.912 59.4226Z" fill="#373433" fill-rule="nonzero" fill-opacity="1" transform="matrix(1 0 0 1.00272 31 250.212)"/><path d="M97.1548 0 97.1548 26.3222 95.3473 26.3222 95.3473 21.3515 85.4059 21.3515 85.4059 52.0795 90.3766 52.0795 90.3766 54 74.6736 54 74.6736 52.0795 80.2092 52.0795 80.2092 21.3515 69.9289 21.3515 69.9289 34.4561 67.5565 34.4561 67.5565 33.5523C67.4435 32.4226 67.1046 30.6151 66.0879 29.8243 63.4895 27.4519 59.1967 27.4519 57.1632 29.9372 55.0167 32.5356 55.5816 36.8284 59.1967 39.3138 62.0209 41.2343 64.8452 42.8159 67.6695 44.7364 71.9623 47.7866 73.205 51.4017 71.8494 55.4686 70.2678 59.8745 66.9916 62.1339 61.9079 62.3598 58.5188 62.4728 55.0167 61.1172 52.6443 59.6485L52.6443 76.3682 111.276 76.3682 111.276 0 97.1548 0Z" fill="#A90533" fill-rule="evenodd" fill-opacity="1" transform="matrix(1 0 0 1.00272 31 250.212)"/><path d="M26.3222 19.6569 26.3222 21.3515 22.7071 21.3515 22.7071 35.0209 42.1381 35.0209 42.1381 21.3515 38.41 21.3515 38.41 19.6569 50.6109 19.6569 50.6109 21.3515 46.9958 21.3515 46.9958 52.8703 52.9833 52.8703C54.2259 57.728 57.2761 59.1967 61.569 58.9707 64.5063 58.8577 67.2176 57.3891 67.6695 54.3389 68.1213 51.2887 66.0879 49.0293 63.7155 47.4477 60.7782 45.6402 57.728 43.9456 54.7908 42.0251 49.0293 38.0711 49.2552 29.9372 55.3556 27 57.841 25.7573 58.8577 25.6444 61.795 25.5314 63.2636 25.4184 65.9749 26.0962 67.4435 26.4351L67.4435 19.6569 67.5565 19.6569 67.5565 19.5439 95.3473 19.5439 95.3473 0 0 0 0 19.6569 26.3222 19.6569Z" fill="#A41F36" fill-rule="evenodd" fill-opacity="1" transform="matrix(1 0 0 1.00272 31 250.212)"/><path d="M50.6109 54.5649 38.41 54.5649 38.41 52.8703 42.1381 52.8703 42.1381 38.636 22.7071 38.636 22.7071 52.8703 26.5481 52.8703 26.5481 54.5649 14.3473 54.5649 14.3473 52.8703 17.3975 52.8703 17.3975 21.3515 0 21.3515 0 76.3682 50.6109 76.3682Z" fill="#A90533" fill-rule="evenodd" fill-opacity="1" transform="matrix(1 0 0 1.00272 31 250.212)"/></g></g></g></g></g></svg>